<svg xmlns="http://www.w3.org/2000/svg" width="32" height="32" class="nest-outlined_svg__nest-filled_svg__icon" viewBox="0 0 1024 1024"><path d="M492.902 47.155a42.65 42.65 0 0 1 38.196 0l426.65 213.35a42.65 42.65 0 0 1 0 76.289l-426.65 213.35a42.65 42.65 0 0 1-38.196 0L66.252 336.896a42.65 42.65 0 0 1 0-76.34zM180.736 298.65 512 464.282 843.264 298.65 512 133.018zM47.156 492.902a42.65 42.65 0 0 1 57.24-19.046L512 677.632l407.552-203.776a42.65 42.65 0 1 1 38.195 76.288l-426.65 213.35a42.65 42.65 0 0 1-38.195 0l-426.65-213.35a42.65 42.65 0 0 1-19.097-57.242m0 213.35a42.65 42.65 0 0 1 57.24-19.097L512 890.931l407.552-203.776a42.65 42.65 0 1 1 38.195 76.34l-426.65 213.35a42.65 42.65 0 0 1-38.195 0l-426.65-213.35a42.65 42.65 0 0 1-19.097-57.242"/></svg>